<svg class="iconLeftSlogan" viewBox="0 0 66.783 92.96052631578948" xmlns="http://www.w3.org/2000/svg" data-v-423bf9ae="" style="max-height: 500px" width="66.783" height="92.96052631578948"><g transform="matrix(5.560542583465576,0,0,5.560542583465576,83.83197784423828,-29.13724136352539)" fill="#000000" id="5e1d975e-90f7-4b5c-8472-c3b3719fc01e" data-v-423bf9ae=""><path d="M1.23 15.72L1.23 15.72Q1.09 15.72 0.81 15.68L0.81 15.68Q0.59 15.45 0.42 15.05Q0.25 14.64 0.16 14.18Q0.07 13.73 0.08 13.27Q0.08 12.81 0.23 12.46L0.23 12.46Q0.23 12.44 0.36 12.13Q0.49 11.81 0.70 11.33Q0.90 10.84 1.16 10.25Q1.42 9.65 1.68 9.08Q1.94 8.50 2.18 8.03Q2.42 7.56 2.60 7.30L2.60 7.30Q2.72 7.11 2.82 6.93Q2.93 6.75 3.02 6.60L3.02 6.60Q3.17 6.36 3.30 6.15Q3.43 5.93 3.59 5.76Q3.75 5.59 3.94 5.46Q4.13 5.33 4.40 5.24L4.40 5.24Q4.57 5.30 4.69 5.38Q4.81 5.46 4.91 5.56L4.91 5.56L4.95 5.76Q4.98 5.85 5.04 5.89Q5.10 5.92 5.14 5.92L5.14 5.92Q5.32 5.96 5.45 6.01Q5.58 6.06 5.73 6.07L5.73 6.07Q5.78 6.15 5.83 6.23Q5.88 6.32 5.93 6.38L5.93 6.38Q6.21 6.78 6.38 7.15Q6.56 7.52 6.38 7.96L6.38 7.96L6.40 8.11Q6.47 8.20 6.47 8.29Q6.47 8.37 6.44 8.52L6.44 8.52Q6.43 8.63 6.42 8.76Q6.41 8.89 6.45 9.04L6.45 9.04L6.55 9.15Q6.77 9.26 6.97 9.26L6.97 9.26Q7.25 9.26 7.46 9.13Q7.68 9.01 7.88 8.89L7.88 8.89Q8.03 8.78 8.16 8.71Q8.29 8.64 8.41 8.61L8.41 8.61Q8.70 8.34 8.93 8.13Q9.17 7.92 9.43 7.70L9.43 7.70Q9.93 7.30 10.39 6.84Q10.86 6.38 11.13 5.70L11.13 5.70Q11.28 5.61 11.47 5.61L11.47 5.61Q11.66 5.61 11.85 5.68Q12.04 5.76 12.24 5.85L12.24 5.85Q12.28 5.88 12.31 5.89Q12.35 5.91 12.39 5.93L12.39 5.93Q12.39 6.08 12.51 6.21L12.51 6.21Q12.58 6.26 12.61 6.28Q12.63 6.29 12.66 6.30L12.66 6.30Q12.77 6.37 12.84 6.43Q12.92 6.48 12.96 6.58L12.96 6.58Q13.08 6.95 13.37 7.15L13.37 7.15Q13.34 7.30 13.38 7.44Q13.43 7.59 13.48 7.72L13.48 7.72Q13.51 7.78 13.52 7.83Q13.54 7.88 13.56 7.94L13.56 7.94L13.26 7.92L13.30 8.22Q13.34 8.45 13.27 8.74Q13.19 9.02 13.10 9.19L13.10 9.19Q13.13 9.60 13.13 9.84Q13.13 10.08 13.10 10.28Q13.07 10.49 13.01 10.67Q12.95 10.86 12.85 11.06L12.85 11.06Q12.91 12.10 12.61 12.96Q12.32 13.82 11.98 14.57L11.98 14.57Q11.94 14.67 11.89 14.75Q11.85 14.83 11.83 14.92L11.83 14.92Q11.68 14.96 11.55 15.01Q11.43 15.07 11.32 15.13L11.32 15.13Q11.17 15.23 11.02 15.29Q10.87 15.35 10.71 15.35L10.71 15.35Q10.05 14.88 10.03 13.70Q10.01 12.52 10.53 10.71L10.53 10.71Q10.62 10.64 10.61 10.50L10.61 10.50L10.61 10.35L10.47 10.34Q10.40 10.34 10.35 10.35Q10.29 10.36 10.27 10.47L10.27 10.47Q9.83 10.79 9.32 11.12Q8.80 11.46 8.26 11.74Q7.71 12.02 7.14 12.20Q6.58 12.39 6.04 12.39L6.04 12.39Q4.68 12.39 3.98 10.99L3.98 10.99L3.86 10.75L3.72 10.96Q3.68 11.03 3.58 11.23Q3.47 11.43 3.37 11.69Q3.27 11.95 3.19 12.22Q3.12 12.50 3.14 12.70L3.14 12.70Q2.98 12.85 2.82 13.04Q2.67 13.23 2.60 13.48L2.60 13.48Q2.57 13.55 2.58 13.61Q2.60 13.67 2.63 13.74L2.63 13.74Q2.61 13.84 2.57 13.88Q2.53 13.92 2.47 13.96L2.47 13.96Q2.41 14.03 2.34 14.10Q2.27 14.18 2.21 14.27L2.21 14.27Q2.19 14.36 2.17 14.44Q2.16 14.53 2.15 14.60L2.15 14.60Q2.15 14.75 2.11 14.81L2.11 14.81Q1.97 15.09 1.87 15.28Q1.76 15.46 1.67 15.56Q1.57 15.65 1.47 15.69Q1.37 15.72 1.23 15.72ZM21.60 11.43L21.60 11.43Q21.59 11.59 21.63 11.74Q21.67 11.89 21.73 12.04Q21.79 12.18 21.85 12.33Q21.90 12.48 21.93 12.63L21.93 12.63Q21.96 12.82 21.93 13.05Q21.90 13.28 21.83 13.49Q21.77 13.70 21.66 13.87Q21.55 14.04 21.40 14.12L21.40 14.12Q21.21 14.37 20.93 14.51Q20.66 14.64 20.43 14.83L20.43 14.83Q20.28 14.93 20.09 14.97Q19.91 15.01 19.71 15.05L19.71 15.05Q19.56 15.13 19.36 15.22Q19.15 15.31 18.94 15.39Q18.72 15.46 18.50 15.50Q18.28 15.53 18.12 15.52L18.12 15.52Q17.71 15.67 17.32 15.72Q16.93 15.76 16.41 15.65L16.41 15.65Q15.91 15.72 15.50 15.61Q15.08 15.50 14.76 15.26Q14.44 15.03 14.20 14.69Q13.96 14.36 13.81 13.99L13.81 13.99Q13.70 13.21 13.86 12.57Q14.03 11.94 14.33 11.40Q14.64 10.86 15.04 10.40Q15.44 9.94 15.80 9.50L15.80 9.50Q15.89 9.53 15.93 9.50Q15.98 9.46 16.02 9.40Q16.06 9.34 16.11 9.28Q16.16 9.23 16.23 9.21L16.23 9.21Q16.32 9.01 16.51 8.91Q16.69 8.80 16.80 8.61L16.80 8.61Q16.93 8.59 17.01 8.53Q17.09 8.48 17.17 8.41Q17.24 8.34 17.32 8.28Q17.40 8.22 17.51 8.19L17.51 8.19L17.51 8.04Q17.76 7.93 17.88 7.79Q17.99 7.64 18.16 7.44L18.16 7.44Q18.28 7.42 18.35 7.42Q18.43 7.42 18.58 7.40L18.58 7.40Q18.69 7.21 18.78 7.11Q18.87 7.01 19.04 6.90L19.04 6.90Q19.21 6.99 19.41 7.01Q19.61 7.04 19.76 7.19L19.76 7.19Q19.77 7.33 19.84 7.40Q19.91 7.48 19.99 7.54Q20.07 7.60 20.15 7.67Q20.22 7.74 20.25 7.86L20.25 7.86Q20.30 7.88 20.32 7.85Q20.34 7.82 20.40 7.83L20.40 7.83Q20.44 8.03 20.49 8.09Q20.55 8.15 20.60 8.33L20.60 8.33Q20.54 8.46 20.50 8.61Q20.47 8.75 20.33 8.82L20.33 8.82Q20.32 8.91 20.38 8.92Q20.45 8.93 20.47 9.00L20.47 9.00Q20.48 9.12 20.43 9.17L20.43 9.17Q20.75 9.71 21.01 10.30Q21.27 10.90 21.60 11.43ZM19.89 12.73L19.89 12.73Q19.95 12.58 20.04 12.48Q20.13 12.39 20.14 12.20L20.14 12.20Q20.07 12.09 20.06 12.02Q20.04 11.96 20.04 11.83L20.04 11.83Q19.74 11.40 19.52 10.92Q19.30 10.43 19.03 10.01L19.03 10.01Q19.00 10.06 18.94 10.12Q18.87 10.17 18.79 10.09L18.79 10.09Q18.76 10.20 18.69 10.25Q18.62 10.29 18.54 10.29Q18.46 10.28 18.37 10.25Q18.28 10.21 18.21 10.16L18.21 10.16Q17.81 10.47 17.42 10.77Q17.02 11.07 16.71 11.47L16.71 11.47Q16.65 11.50 16.64 11.49Q16.63 11.48 16.56 11.51L16.56 11.51Q16.45 11.77 16.29 11.98Q16.13 12.20 15.98 12.41Q15.83 12.63 15.72 12.88Q15.61 13.13 15.60 13.45L15.60 13.45Q15.83 13.64 16.15 13.69Q16.46 13.73 16.80 13.70Q17.13 13.67 17.45 13.61Q17.77 13.55 18.05 13.55L18.05 13.55Q18.62 13.41 19.03 13.19Q19.44 12.96 19.89 12.73ZM25.24 13.04L25.24 13.04Q25.12 13.07 25.06 13.19Q25.01 13.30 24.96 13.43Q24.91 13.55 24.86 13.65Q24.81 13.75 24.72 13.75L24.72 13.75Q24.71 13.86 24.64 13.95Q24.58 14.03 24.53 14.12Q24.47 14.21 24.45 14.31Q24.42 14.41 24.47 14.55L24.47 14.55Q24.36 14.63 24.34 14.78Q24.31 14.93 24.27 15.07Q24.24 15.20 24.16 15.30Q24.08 15.39 23.86 15.38L23.86 15.38Q23.82 15.44 23.84 15.45Q23.87 15.46 23.88 15.54L23.88 15.54Q23.73 15.52 23.66 15.57Q23.58 15.61 23.47 15.63L23.47 15.63Q23.21 15.54 23.04 15.34Q22.87 15.13 22.74 14.88Q22.61 14.63 22.51 14.37Q22.41 14.11 22.31 13.92L22.31 13.92Q22.35 13.77 22.33 13.62Q22.30 13.48 22.23 13.38L22.23 13.38Q22.90 11.96 23.69 10.35Q24.49 8.74 25.20 7.16L25.20 7.16Q25.51 7.29 25.82 7.44Q26.13 7.60 26.38 7.81Q26.63 8.01 26.81 8.28Q26.99 8.54 27.04 8.87L27.04 8.87Q27.02 8.96 26.98 8.93Q26.95 8.91 26.92 8.96L26.92 8.96Q26.97 9.02 26.98 9.05Q26.99 9.08 26.98 9.11Q26.97 9.13 26.97 9.18Q26.97 9.23 27.02 9.31L27.02 9.31Q26.96 9.30 26.94 9.32Q26.92 9.35 26.85 9.32L26.85 9.32Q26.91 9.47 26.89 9.57Q26.87 9.67 26.82 9.74Q26.78 9.82 26.76 9.91Q26.73 9.99 26.77 10.13L26.77 10.13Q26.73 10.13 26.71 10.15Q26.69 10.17 26.67 10.19Q26.66 10.21 26.64 10.23Q26.62 10.25 26.58 10.24L26.58 10.24Q26.62 10.54 26.61 10.84Q26.59 11.14 26.58 11.45Q26.58 11.76 26.59 12.09Q26.61 12.43 26.69 12.78L26.69 12.78Q27.18 12.50 27.47 12.04Q27.77 11.59 27.95 11.03Q28.14 10.47 28.23 9.83Q28.33 9.19 28.44 8.52L28.44 8.52Q28.56 8.39 28.63 8.22Q28.70 8.04 28.75 7.84Q28.81 7.64 28.86 7.44Q28.92 7.25 29.00 7.08L29.00 7.08Q29.20 7.11 29.35 7.21Q29.49 7.31 29.61 7.43Q29.74 7.55 29.87 7.65Q30.01 7.75 30.21 7.78L30.21 7.78Q30.38 8.01 30.52 8.23Q30.65 8.45 30.69 8.70L30.69 8.70Q30.63 8.80 30.59 8.94Q30.56 9.08 30.52 9.21Q30.47 9.35 30.41 9.47Q30.34 9.58 30.21 9.67L30.21 9.67Q30.17 10.02 30.11 10.32Q30.05 10.61 29.99 10.90Q29.93 11.18 29.89 11.49Q29.85 11.80 29.86 12.17L29.86 12.17Q29.75 12.48 29.63 12.84Q29.50 13.19 29.44 13.48L29.44 13.48Q29.22 13.66 29.09 13.90Q28.97 14.15 28.83 14.40L28.83 14.40Q28.78 14.45 28.77 14.42Q28.75 14.40 28.67 14.38L28.67 14.38Q28.68 14.44 28.67 14.46Q28.66 14.49 28.64 14.51Q28.62 14.53 28.61 14.57Q28.60 14.62 28.63 14.68L28.63 14.68Q28.44 14.77 28.29 14.92Q28.14 15.07 27.97 15.19Q27.79 15.31 27.56 15.35Q27.32 15.39 26.93 15.26L26.93 15.26Q26.37 14.85 25.94 14.31Q25.51 13.78 25.24 13.04ZM37.97 7.83L37.97 7.83Q37.98 7.93 37.97 7.98Q37.97 8.03 37.96 8.07Q37.95 8.11 37.95 8.16Q37.95 8.20 37.98 8.30L37.98 8.30Q37.69 8.76 37.32 8.93Q36.94 9.11 36.50 9.18Q36.07 9.26 35.61 9.34Q35.15 9.42 34.70 9.69L34.70 9.69Q34.52 9.63 34.38 9.69Q34.23 9.76 33.96 9.73L33.96 9.73Q33.88 9.82 33.76 9.85Q33.63 9.88 33.51 9.93L33.51 9.93Q33.56 10.05 33.56 10.18Q33.55 10.31 33.59 10.39L33.59 10.39Q34.07 10.43 34.65 10.38Q35.23 10.32 35.79 10.31L35.79 10.31Q35.81 10.38 35.78 10.40Q35.75 10.42 35.77 10.47L35.77 10.47Q35.86 10.54 35.96 10.64Q36.05 10.75 36.15 10.84Q36.24 10.94 36.35 11.00Q36.45 11.06 36.59 11.05L36.59 11.05Q36.64 11.16 36.66 11.29Q36.68 11.42 36.63 11.55L36.63 11.55Q36.41 11.70 36.19 11.86Q35.97 12.02 35.73 12.14Q35.49 12.26 35.23 12.34Q34.96 12.41 34.63 12.40L34.63 12.40Q34.56 12.40 34.53 12.40Q34.49 12.40 34.44 12.36L34.44 12.36Q34.33 12.43 34.13 12.40Q33.93 12.37 33.82 12.44L33.82 12.44Q33.67 12.37 33.46 12.38Q33.25 12.39 33.09 12.33L33.09 12.33Q32.87 12.62 32.69 12.95Q32.51 13.28 32.38 13.64L32.38 13.64Q32.84 13.71 33.15 13.70Q33.46 13.69 33.73 13.65Q34.00 13.62 34.29 13.58Q34.58 13.55 35.01 13.56L35.01 13.56Q35.29 13.41 35.66 13.36Q36.04 13.32 36.35 13.21L36.35 13.21Q36.46 13.25 36.54 13.35Q36.63 13.45 36.70 13.54Q36.78 13.63 36.86 13.70Q36.94 13.77 37.06 13.75L37.06 13.75Q37.12 13.81 37.14 13.88Q37.16 13.96 37.17 14.03Q37.19 14.10 37.22 14.14Q37.26 14.19 37.34 14.18L37.34 14.18Q37.13 14.63 36.87 14.87Q36.60 15.11 36.26 15.23Q35.92 15.35 35.50 15.42Q35.08 15.49 34.58 15.59L34.58 15.59Q34.45 15.61 34.37 15.58Q34.29 15.54 34.18 15.54L34.18 15.54Q33.87 15.61 33.43 15.67Q32.99 15.72 32.54 15.71Q32.09 15.70 31.68 15.59Q31.27 15.49 31.01 15.23L31.01 15.23Q30.90 15.13 30.86 15.00Q30.83 14.88 30.68 14.81L30.68 14.81Q30.67 14.63 30.63 14.41Q30.58 14.19 30.54 13.95Q30.50 13.71 30.48 13.48Q30.46 13.25 30.50 13.06L30.50 13.06Q30.54 12.85 30.67 12.69Q30.80 12.52 30.76 12.33L30.76 12.33Q30.83 12.32 30.84 12.26Q30.86 12.20 30.95 12.21L30.95 12.21Q31.04 11.96 31.13 11.74Q31.23 11.53 31.33 11.32Q31.43 11.12 31.53 10.90Q31.64 10.69 31.73 10.43L31.73 10.43Q31.54 10.25 31.45 10.04Q31.36 9.83 31.32 9.62Q31.28 9.41 31.25 9.18Q31.23 8.96 31.16 8.72L31.16 8.72Q31.29 8.52 31.49 8.39Q31.69 8.26 31.92 8.18Q32.16 8.09 32.43 8.04Q32.70 7.98 33.00 7.92L33.00 7.92Q33.55 7.74 33.98 7.64Q34.41 7.55 34.83 7.49Q35.25 7.42 35.70 7.37Q36.15 7.31 36.72 7.21L36.72 7.21Q36.85 7.33 36.96 7.33L36.96 7.33Q37.01 7.21 37.08 7.25Q37.16 7.30 37.15 7.18L37.15 7.18Q37.28 7.41 37.50 7.57Q37.71 7.72 37.97 7.83ZM42.08 11.74L42.01 11.95Q41.92 12.03 41.85 12.15Q41.78 12.26 41.71 12.39L41.71 12.39Q41.64 12.54 41.56 12.67Q41.48 12.81 41.36 12.92L41.36 12.92Q41.29 13.13 41.22 13.24Q41.15 13.36 41.00 13.51L41.00 13.51Q40.87 14.05 40.36 14.70L40.36 14.70Q40.35 14.82 40.28 14.94Q40.22 15.05 40.15 15.16L40.15 15.16Q40.13 15.20 40.10 15.25Q40.07 15.30 40.06 15.33L40.06 15.33L40.03 15.46Q39.96 15.57 39.88 15.65Q39.80 15.74 39.73 15.80L39.73 15.80Q39.70 15.85 39.63 15.91L39.63 15.91L39.43 16.00Q38.43 15.86 38.21 14.93L38.21 14.93L38.23 14.79Q38.25 14.72 38.27 14.65Q38.29 14.57 38.32 14.49L38.32 14.49Q38.38 14.30 38.45 14.11Q38.53 13.92 38.68 13.77L38.68 13.77Q38.71 13.67 38.80 13.46Q38.90 13.25 39.13 12.82L39.13 12.82Q39.32 12.50 39.43 12.30Q39.54 12.11 39.61 12.00L39.61 12.00Q39.47 11.79 39.28 11.61L39.28 11.61Q39.10 11.27 38.97 10.95Q38.84 10.64 38.77 10.39L38.77 10.39Q38.76 10.21 38.73 10.09Q38.71 9.97 38.68 9.83L38.68 9.83Q38.64 9.68 38.61 9.53Q38.58 9.38 38.58 9.21L38.58 9.21Q38.51 9.12 38.50 9.02L38.50 9.02L38.53 8.89Q38.57 8.79 38.54 8.63Q38.51 8.48 38.47 8.31L38.47 8.31Q38.45 8.18 38.41 8.01Q38.38 7.85 38.39 7.68Q38.40 7.52 38.48 7.38Q38.55 7.23 38.73 7.12L38.73 7.12L38.96 7.11Q39.09 7.18 39.20 7.24Q39.32 7.30 39.43 7.37L39.43 7.37Q39.58 7.44 39.72 7.51Q39.85 7.57 40.00 7.68L40.00 7.68L40.10 7.88L40.28 8.03L40.28 8.18Q40.29 8.23 40.29 8.33L40.29 8.33Q40.29 8.50 40.35 8.54L40.35 8.54L40.40 8.71Q40.40 8.90 40.44 9.07Q40.48 9.24 40.52 9.39L40.52 9.39Q40.56 9.54 40.61 9.71Q40.65 9.87 40.62 10.06L40.62 10.06Q40.70 10.02 40.76 9.97L40.76 9.97Q40.78 9.94 40.81 9.93Q40.84 9.91 40.87 9.88L40.87 9.88L41.67 8.79L41.64 8.65L41.93 8.38Q42.04 8.27 42.14 8.18Q42.25 8.08 42.31 7.97L42.31 7.97L42.46 7.86Q42.90 7.18 43.71 7.01L43.71 7.01L43.90 6.99L43.96 7.16Q44.01 7.31 44.18 7.44Q44.35 7.56 44.54 7.67L44.54 7.67L44.67 7.75Q44.73 7.89 44.73 7.96Q44.73 8.03 44.72 8.08L44.72 8.08L44.78 8.22Q44.67 8.54 44.51 8.70Q44.35 8.85 44.20 8.97L44.20 8.97Q44.08 9.08 43.98 9.17Q43.87 9.26 43.82 9.39L43.82 9.39L43.72 9.50Q43.44 9.67 43.35 9.94L43.35 9.94L43.31 10.10L43.15 10.10Q43.13 10.10 43.09 10.15Q43.04 10.20 42.94 10.39L42.94 10.39Q42.85 10.53 42.81 10.57Q42.77 10.61 42.74 10.64L42.74 10.64Q42.72 10.69 42.70 10.74Q42.68 10.79 42.66 10.86L42.66 10.86Q42.48 11.03 42.44 11.12Q42.40 11.21 42.34 11.32L42.34 11.32Q42.29 11.43 42.24 11.53Q42.19 11.63 42.08 11.74L42.08 11.74ZM44.47 15.72L44.47 15.72Q44.34 15.72 44.05 15.68L44.05 15.68Q43.83 15.45 43.66 15.05Q43.49 14.64 43.40 14.18Q43.31 13.73 43.32 13.27Q43.33 12.81 43.48 12.46L43.48 12.46Q43.48 12.44 43.61 12.13Q43.74 11.81 43.94 11.33Q44.15 10.84 44.41 10.25Q44.67 9.65 44.93 9.08Q45.19 8.50 45.42 8.03Q45.66 7.56 45.84 7.30L45.84 7.30Q45.96 7.11 46.07 6.93Q46.17 6.75 46.27 6.60L46.27 6.60Q46.42 6.36 46.55 6.15Q46.68 5.93 46.83 5.76Q46.99 5.59 47.18 5.46Q47.37 5.33 47.65 5.24L47.65 5.24Q47.81 5.30 47.93 5.38Q48.06 5.46 48.15 5.56L48.15 5.56L48.19 5.76Q48.22 5.85 48.28 5.89Q48.34 5.92 48.38 5.92L48.38 5.92Q48.56 5.96 48.69 6.01Q48.82 6.06 48.97 6.07L48.97 6.07Q49.03 6.15 49.08 6.23Q49.12 6.32 49.18 6.38L49.18 6.38Q49.45 6.78 49.63 7.15Q49.81 7.52 49.63 7.96L49.63 7.96L49.64 8.11Q49.71 8.20 49.71 8.29Q49.71 8.37 49.68 8.52L49.68 8.52Q49.67 8.63 49.66 8.76Q49.66 8.89 49.70 9.04L49.70 9.04L49.79 9.15Q50.01 9.26 50.22 9.26L50.22 9.26Q50.49 9.26 50.71 9.13Q50.93 9.01 51.12 8.89L51.12 8.89Q51.27 8.78 51.40 8.71Q51.53 8.64 51.65 8.61L51.65 8.61Q51.94 8.34 52.18 8.13Q52.42 7.92 52.68 7.70L52.68 7.70Q53.17 7.30 53.63 6.84Q54.10 6.38 54.37 5.70L54.37 5.70Q54.52 5.61 54.71 5.61L54.71 5.61Q54.91 5.61 55.10 5.68Q55.29 5.76 55.48 5.85L55.48 5.85Q55.52 5.88 55.56 5.89Q55.59 5.91 55.63 5.93L55.63 5.93Q55.63 6.08 55.75 6.21L55.75 6.21Q55.82 6.26 55.85 6.28Q55.88 6.29 55.90 6.30L55.90 6.30Q56.01 6.37 56.09 6.43Q56.16 6.48 56.21 6.58L56.21 6.58Q56.33 6.95 56.62 7.15L56.62 7.15Q56.59 7.30 56.63 7.44Q56.67 7.59 56.72 7.72L56.72 7.72Q56.75 7.78 56.77 7.83Q56.78 7.88 56.81 7.94L56.81 7.94L56.51 7.92L56.55 8.22Q56.59 8.45 56.51 8.74Q56.44 9.02 56.34 9.19L56.34 9.19Q56.37 9.60 56.37 9.84Q56.37 10.08 56.34 10.28Q56.31 10.49 56.25 10.67Q56.19 10.86 56.10 11.06L56.10 11.06Q56.15 12.10 55.86 12.96Q55.56 13.82 55.22 14.57L55.22 14.57Q55.18 14.67 55.14 14.75Q55.10 14.83 55.07 14.92L55.07 14.92Q54.92 14.96 54.80 15.01Q54.67 15.07 54.56 15.13L54.56 15.13Q54.41 15.23 54.26 15.29Q54.11 15.35 53.95 15.35L53.95 15.35Q53.29 14.88 53.27 13.70Q53.25 12.52 53.77 10.71L53.77 10.71Q53.87 10.64 53.85 10.50L53.85 10.50L53.85 10.35L53.72 10.34Q53.65 10.34 53.59 10.35Q53.54 10.36 53.51 10.47L53.51 10.47Q53.07 10.79 52.56 11.12Q52.05 11.46 51.50 11.74Q50.96 12.02 50.39 12.20Q49.82 12.39 49.29 12.39L49.29 12.39Q47.92 12.39 47.22 10.99L47.22 10.99L47.10 10.75L46.96 10.96Q46.92 11.03 46.82 11.23Q46.72 11.43 46.61 11.69Q46.51 11.95 46.44 12.22Q46.36 12.50 46.39 12.70L46.39 12.70Q46.22 12.85 46.07 13.04Q45.91 13.23 45.84 13.48L45.84 13.48Q45.81 13.55 45.83 13.61Q45.84 13.67 45.87 13.74L45.87 13.74Q45.86 13.84 45.81 13.88Q45.77 13.92 45.72 13.96L45.72 13.96Q45.65 14.03 45.58 14.10Q45.51 14.18 45.46 14.27L45.46 14.27Q45.43 14.36 45.42 14.44Q45.40 14.53 45.39 14.60L45.39 14.60Q45.39 14.75 45.35 14.81L45.35 14.81Q45.21 15.09 45.11 15.28Q45.01 15.46 44.91 15.56Q44.82 15.65 44.71 15.69Q44.61 15.72 44.47 15.72ZM64.13 14.33L64.11 14.38Q64.03 14.62 63.87 14.85Q63.71 15.09 63.50 15.28Q63.29 15.46 63.03 15.59Q62.77 15.71 62.48 15.72L62.48 15.72Q62.30 15.68 62.24 15.63Q62.18 15.59 62.11 15.54L62.11 15.54Q62.07 15.52 62.04 15.50Q62.00 15.48 61.97 15.46L61.97 15.46L61.81 15.39L61.87 15.22Q61.89 15.11 61.85 15.05Q61.81 14.98 61.69 14.88L61.69 14.88Q61.65 14.83 61.61 14.79Q61.56 14.75 61.54 14.71L61.54 14.71L61.30 14.45L61.67 14.36Q62.02 14.26 62.13 14.11Q62.25 13.96 62.22 13.60L62.22 13.60Q61.95 13.55 61.76 13.59Q61.58 13.63 61.39 13.69L61.39 13.69Q61.14 13.75 60.89 13.80Q60.63 13.85 60.33 13.85L60.33 13.85Q60.22 13.85 60.13 13.84Q60.03 13.84 59.92 13.82L59.92 13.82L59.79 13.79Q59.76 13.64 59.73 13.62Q59.71 13.60 59.68 13.58L59.68 13.58Q59.61 13.51 59.53 13.39Q59.46 13.28 59.50 13.10L59.50 13.10Q59.43 12.97 59.42 12.85L59.42 12.85Q59.34 13.02 59.29 13.19L59.29 13.19L59.24 13.33L59.10 13.36Q59.08 13.37 59.06 13.42Q59.05 13.47 59.05 13.49L59.05 13.49L58.98 13.73Q58.95 13.75 58.93 13.77Q58.90 13.79 58.87 13.82L58.87 13.82Q58.84 13.95 58.80 14.07Q58.76 14.19 58.72 14.30L58.72 14.30Q58.65 14.48 58.60 14.65Q58.56 14.82 58.57 14.98L58.57 14.98L58.52 15.13Q58.45 15.22 58.37 15.26Q58.28 15.31 58.20 15.35L58.20 15.35Q58.17 15.38 58.13 15.40Q58.08 15.42 58.05 15.44L58.05 15.44L58.01 15.59L57.85 15.61Q57.70 15.64 57.63 15.65Q57.57 15.67 57.49 15.67L57.49 15.67L57.35 15.65Q57.20 15.53 57.12 15.46Q57.04 15.38 56.93 15.31L56.93 15.31Q56.81 15.15 56.79 15.07Q56.78 14.98 56.77 14.92L56.77 14.92Q56.74 14.83 56.73 14.78Q56.72 14.72 56.70 14.70L56.70 14.70L56.52 14.53L56.67 14.41L56.68 14.18Q56.96 13.48 57.26 12.84Q57.57 12.20 57.90 11.53L57.90 11.53Q58.01 11.31 58.11 11.09Q58.21 10.87 58.32 10.65L58.32 10.65Q58.31 10.61 58.31 10.55Q58.31 10.50 58.34 10.43L58.34 10.43Q58.49 10.20 58.58 10.01Q58.68 9.83 58.78 9.64L58.78 9.64Q58.88 9.41 59.00 9.19Q59.12 8.97 59.29 8.74L59.29 8.74L59.51 8.64Q59.55 8.63 59.61 8.61Q59.66 8.59 59.73 8.59L59.73 8.59L59.94 8.61Q60.32 8.44 60.61 8.11Q60.89 7.79 61.20 7.34L61.20 7.34L61.33 7.15L61.51 7.26Q61.58 7.30 61.70 7.33Q61.82 7.37 61.96 7.41L61.96 7.41Q62.21 7.46 62.43 7.53Q62.64 7.60 62.78 7.74L62.78 7.74Q62.86 7.96 62.88 8.07Q62.89 8.18 62.92 8.29L62.92 8.29Q62.96 8.52 62.99 8.75Q63.03 8.98 63.04 9.27L63.04 9.27Q63.11 9.50 63.16 9.73Q63.21 9.95 63.25 10.19L63.25 10.19Q63.31 10.51 63.38 10.82Q63.45 11.13 63.56 11.40L63.56 11.40Q63.67 11.40 63.70 11.42L63.70 11.42Q63.77 11.39 63.84 11.38Q63.92 11.36 64.01 11.35L64.01 11.35L64.16 11.33L64.22 11.47Q64.23 11.54 64.35 11.61L64.35 11.61Q64.53 11.62 64.61 11.68Q64.70 11.74 64.76 11.81L64.76 11.81Q64.82 11.87 64.87 11.89L64.87 11.89L65.08 11.98L64.97 12.18Q64.83 12.43 64.58 12.65Q64.33 12.88 64.01 13.03L64.01 13.03Q64.03 13.11 64.03 13.19Q64.04 13.26 64.07 13.34L64.07 13.34Q64.11 13.58 64.13 13.82Q64.16 14.07 64.13 14.33L64.13 14.33ZM60.16 12.02L60.16 12.02Q60.57 11.99 60.90 11.96Q61.24 11.92 61.65 11.84L61.65 11.84Q61.55 11.43 61.44 10.99Q61.33 10.54 61.21 10.10L61.21 10.10L61.13 10.24Q60.85 10.53 60.60 10.88Q60.35 11.24 60.17 11.55L60.17 11.55Q60.09 11.68 60.01 11.80Q59.92 11.92 59.86 12.04L59.86 12.04Q59.94 12.03 60.01 12.03Q60.09 12.03 60.16 12.02ZM72.09 8.96L72.09 8.96Q71.75 8.96 71.35 9.00Q70.96 9.05 70.57 9.11L70.57 9.11Q70.30 9.15 70.05 9.17Q69.79 9.20 69.59 9.21L69.59 9.21Q69.49 9.52 69.40 9.75Q69.30 9.98 69.19 10.20L69.19 10.20Q69.08 10.43 69.00 10.67Q68.91 10.91 68.82 11.18L68.82 11.18Q68.69 11.40 68.60 11.59Q68.51 11.77 68.46 12.00L68.46 12.00Q68.29 12.21 68.21 12.43Q68.13 12.66 68.09 12.82L68.09 12.82L68.03 12.99Q67.95 13.07 67.94 13.12Q67.92 13.17 67.87 13.21L67.87 13.21Q67.85 13.36 67.77 13.51L67.77 13.51Q67.74 13.58 67.73 13.64Q67.72 13.70 67.72 13.73L67.72 13.73Q67.72 13.86 67.65 13.90L67.65 13.90Q67.66 13.97 67.65 14.05Q67.63 14.12 67.62 14.19L67.62 14.19Q67.58 14.36 67.59 14.45L67.59 14.45Q67.63 14.51 67.67 14.55Q67.70 14.59 67.72 14.66L67.72 14.66Q67.80 14.71 67.84 14.72L67.84 14.72Q67.89 14.77 68.00 14.82L68.00 14.82L68.13 14.96Q68.20 15.35 68.00 15.59L68.00 15.59Q67.80 15.85 67.31 15.85L67.31 15.85L67.14 15.85Q67.07 15.78 67.06 15.74L67.06 15.74Q66.95 15.70 66.88 15.67Q66.81 15.64 66.76 15.56L66.76 15.56Q66.58 15.48 66.47 15.42L66.47 15.42L66.35 15.35Q66.35 15.20 66.35 15.19L66.35 15.19Q66.25 15.07 66.21 14.92Q66.16 14.77 66.13 14.62L66.13 14.62Q66.10 14.49 66.07 14.38Q66.04 14.27 65.98 14.19L65.98 14.19Q65.95 13.40 66.13 12.85Q66.31 12.30 66.50 11.80L66.50 11.80Q66.61 11.53 66.72 11.25Q66.83 10.96 66.91 10.66L66.91 10.66L67.03 10.53Q67.13 10.31 67.19 10.17Q67.25 10.02 67.32 9.87L67.32 9.87Q67.36 9.78 67.40 9.69Q67.43 9.60 67.46 9.53L67.46 9.53Q67.38 9.53 67.31 9.54Q67.24 9.54 67.17 9.56L67.17 9.56Q67.09 9.57 67.02 9.58Q66.95 9.58 66.88 9.58L66.88 9.58Q66.79 9.58 66.75 9.57L66.75 9.57Q66.60 9.64 66.42 9.64L66.42 9.64L66.28 9.64Q66.24 9.64 66.21 9.63Q66.17 9.63 66.14 9.63L66.14 9.63Q66.01 9.63 65.93 9.67L65.93 9.67Q65.76 9.67 65.61 9.67L65.61 9.67L65.47 9.67Q65.45 9.67 65.41 9.67Q65.37 9.68 65.34 9.68L65.34 9.68Q65.24 9.68 65.13 9.66Q65.02 9.64 64.90 9.57L64.90 9.57Q64.74 9.35 64.68 9.34L64.68 9.34L64.56 9.17Q64.54 9.09 64.52 9.02Q64.49 8.94 64.46 8.85L64.46 8.85Q64.41 8.71 64.36 8.55Q64.31 8.39 64.31 8.18L64.31 8.18Q64.33 8.07 64.37 8.01Q64.41 7.96 64.44 7.92L64.44 7.92L64.48 7.71L64.65 7.72L65.04 7.72Q65.47 7.72 65.93 7.69Q66.38 7.66 66.86 7.62L66.86 7.62Q67.13 7.59 67.41 7.56Q67.69 7.53 67.99 7.51L67.99 7.51Q68.04 7.38 68.10 7.27L68.10 7.27L68.24 7.21Q68.48 7.19 68.58 7.27Q68.69 7.34 68.76 7.41L68.76 7.41Q69.06 7.38 69.36 7.35Q69.67 7.31 69.99 7.26L69.99 7.26Q70.45 7.19 70.92 7.14Q71.39 7.08 71.83 7.08L71.83 7.08Q72.02 7.08 72.20 7.10Q72.38 7.11 72.53 7.14L72.53 7.14L72.67 7.23Q72.71 7.31 72.78 7.38Q72.86 7.45 72.94 7.52L72.94 7.52Q73.10 7.67 73.27 7.88Q73.43 8.08 73.39 8.48L73.39 8.48Q73.28 8.64 73.23 8.67L73.23 8.67L73.10 8.83L72.97 8.82Q72.88 8.82 72.82 8.84Q72.75 8.86 72.68 8.89L72.68 8.89Q72.63 8.91 72.57 8.93Q72.52 8.96 72.45 8.97L72.45 8.97Q72.32 8.97 72.25 8.96Q72.17 8.96 72.09 8.96ZM73.23 14.11L73.23 14.11Q73.08 14.66 72.96 14.94Q72.84 15.22 72.61 15.52L72.61 15.52Q72.43 15.49 72.37 15.56Q72.30 15.63 72.21 15.68L72.21 15.68Q72.09 15.71 72.04 15.68Q71.98 15.65 71.94 15.62Q71.90 15.59 71.84 15.55Q71.78 15.52 71.65 15.52L71.65 15.52Q71.63 15.41 71.59 15.31Q71.56 15.22 71.41 15.24L71.41 15.24Q71.44 15.13 71.42 15.06Q71.41 14.98 71.39 14.92Q71.37 14.86 71.35 14.80Q71.34 14.74 71.37 14.64L71.37 14.64Q71.30 14.64 71.26 14.55Q71.22 14.45 71.16 14.36L71.16 14.36Q71.20 14.11 71.24 13.89Q71.29 13.67 71.35 13.48Q71.41 13.29 71.45 13.10Q71.49 12.91 71.41 12.70L71.41 12.70Q71.46 12.74 71.49 12.68Q71.52 12.62 71.53 12.52Q71.54 12.41 71.54 12.31Q71.54 12.21 71.53 12.14L71.53 12.14Q71.67 11.79 71.76 11.41Q71.85 11.03 71.92 10.66Q72.00 10.29 72.08 9.94Q72.16 9.58 72.30 9.28L72.30 9.28Q72.45 9.26 72.63 9.32Q72.82 9.38 72.86 9.47L72.86 9.47Q73.21 9.20 73.49 8.81Q73.76 8.42 74.05 8.05Q74.33 7.68 74.68 7.40Q75.03 7.11 75.56 7.05L75.56 7.05Q75.84 7.26 76.17 7.47Q76.51 7.68 76.73 8.03L76.73 8.03Q76.84 8.08 76.91 8.14Q76.99 8.20 77.10 8.27L77.10 8.27L77.10 8.44Q77.26 8.59 77.36 8.78Q77.46 8.98 77.55 9.21Q77.63 9.43 77.71 9.66Q77.79 9.88 77.90 10.09L77.90 10.09Q77.88 10.16 77.88 10.21Q77.88 10.25 77.90 10.31Q77.92 10.36 77.93 10.42Q77.94 10.47 77.93 10.57L77.93 10.57Q77.89 11.17 77.54 11.54Q77.19 11.91 76.70 12.15Q76.21 12.39 75.65 12.55Q75.09 12.71 74.63 12.91L74.63 12.91Q74.63 12.96 74.68 12.96Q74.73 12.96 74.72 13.03L74.72 13.03Q75.04 13.23 75.24 13.36Q75.43 13.48 75.60 13.56Q75.77 13.64 75.97 13.71Q76.17 13.77 76.52 13.85L76.52 13.85Q76.88 13.93 77.08 13.98Q77.27 14.03 77.44 14.06Q77.60 14.10 77.77 14.12Q77.94 14.14 78.26 14.16L78.26 14.16Q78.38 14.29 78.47 14.46Q78.56 14.63 78.59 14.80Q78.61 14.97 78.60 15.13Q78.59 15.29 78.50 15.38L78.50 15.38Q78.52 15.42 78.57 15.42Q78.61 15.41 78.67 15.42L78.67 15.42Q78.59 15.48 78.53 15.56Q78.48 15.64 78.42 15.72Q78.37 15.80 78.30 15.87Q78.23 15.93 78.11 15.94L78.11 15.94Q77.68 16.11 77.04 15.96Q76.40 15.82 75.41 15.44L75.41 15.44Q74.92 15.24 74.61 15.10Q74.31 14.96 74.08 14.81Q73.86 14.67 73.67 14.51Q73.49 14.34 73.23 14.11ZM75.18 9.42L75.18 9.42Q75.03 9.64 74.85 9.82Q74.66 9.99 74.49 10.18Q74.32 10.36 74.18 10.59Q74.05 10.81 73.99 11.12L73.99 11.12Q74.47 11.06 74.99 10.85Q75.51 10.64 75.97 10.45L75.97 10.45Q75.92 10.02 75.68 9.76Q75.44 9.50 75.18 9.42ZM81.50 14.57L81.50 14.57Q81.57 14.98 81.45 15.22Q81.33 15.45 81.12 15.57Q80.91 15.68 80.64 15.70Q80.36 15.71 80.12 15.67L80.12 15.67Q79.98 15.48 79.87 15.19Q79.76 14.90 79.67 14.59Q79.57 14.29 79.50 13.99Q79.42 13.69 79.37 13.45L79.37 13.45Q79.43 13.29 79.45 13.08Q79.47 12.87 79.48 12.65Q79.49 12.43 79.50 12.20Q79.50 11.98 79.53 11.77L79.53 11.77Q79.63 11.20 79.81 10.68Q79.99 10.16 80.10 9.60L80.10 9.60Q80.13 9.47 80.08 9.37Q80.04 9.26 80.06 9.16L80.06 9.16Q80.08 9.11 80.14 9.08Q80.21 9.06 80.23 9.00L80.23 9.00Q80.27 8.85 80.25 8.75Q80.23 8.65 80.29 8.52L80.29 8.52Q80.36 8.41 80.47 8.20Q80.57 7.98 80.54 7.75L80.54 7.75Q80.66 7.67 80.77 7.56Q80.88 7.45 81.00 7.36Q81.12 7.27 81.26 7.21Q81.40 7.14 81.61 7.14L81.61 7.14Q81.72 7.27 81.75 7.44Q81.79 7.60 81.82 7.77Q81.85 7.93 81.92 8.07Q81.99 8.22 82.15 8.30L82.15 8.30Q82.15 8.41 82.15 8.57Q82.15 8.74 82.17 8.89Q82.18 9.05 82.23 9.18Q82.28 9.31 82.39 9.35L82.39 9.35Q82.14 10.01 81.93 10.65Q81.72 11.29 81.58 11.94Q81.44 12.59 81.41 13.25Q81.38 13.90 81.50 14.57ZM88.61 15.74L87.83 15.18Q87.62 14.49 87.23 13.86Q86.84 13.23 86.49 12.78L86.49 12.78Q85.93 13.21 85.43 13.72Q84.93 14.23 84.52 14.82L84.52 14.82Q84.49 15.11 84.45 15.29Q84.41 15.48 84.31 15.60Q84.21 15.72 84.05 15.81Q83.89 15.90 83.64 16.00L83.64 16.00Q83.19 15.67 82.99 15.18Q82.78 14.70 82.93 14.22L82.93 14.22Q82.95 13.88 83.10 13.55Q83.26 13.22 83.49 12.93Q83.71 12.63 83.97 12.37Q84.23 12.10 84.46 11.87L84.46 11.87Q84.51 11.73 84.62 11.63Q84.74 11.53 84.87 11.43Q85.00 11.33 85.13 11.22Q85.26 11.12 85.34 10.96L85.34 10.96Q85.24 10.65 84.97 10.33Q84.70 10.01 84.46 9.67L84.46 9.67Q84.44 9.60 84.36 9.63Q84.29 9.65 84.26 9.61L84.26 9.61Q84.29 9.43 84.18 9.23Q84.08 9.02 83.93 8.87L83.93 8.87Q83.97 8.72 84.03 8.51Q84.08 8.30 84 8.04L84 8.04Q84 7.93 84.04 7.83Q84.08 7.72 84.12 7.64Q84.16 7.55 84.19 7.46Q84.22 7.37 84.18 7.29L84.18 7.29Q84.36 7.26 84.49 7.30Q84.63 7.34 84.75 7.40Q84.88 7.45 84.98 7.48Q85.08 7.51 85.19 7.46L85.19 7.46Q85.18 7.53 85.19 7.56Q85.20 7.59 85.23 7.60Q85.26 7.62 85.29 7.64Q85.31 7.66 85.31 7.70L85.31 7.70Q85.53 7.77 85.79 7.99Q86.05 8.22 86.29 8.49Q86.53 8.76 86.72 9.04Q86.91 9.31 87.01 9.45L87.01 9.45Q87.34 9.24 87.72 8.96Q88.10 8.68 88.51 8.38Q88.92 8.08 89.34 7.81Q89.76 7.55 90.15 7.38L90.15 7.38Q90.38 7.49 90.51 7.65Q90.64 7.81 90.73 7.98Q90.82 8.15 90.89 8.33Q90.96 8.52 91.08 8.65L91.08 8.65Q90.97 8.89 90.84 9.04Q90.71 9.20 90.66 9.41L90.66 9.41Q90.37 9.53 89.97 9.78L89.97 9.78Q89.62 9.99 89.11 10.36Q88.59 10.73 87.87 11.35L87.87 11.35Q88.03 11.54 88.14 11.72Q88.25 11.89 88.32 12.02L88.32 12.02Q88.39 12.17 88.44 12.29L88.44 12.29Q88.57 12.39 88.65 12.51Q88.73 12.63 88.81 12.76Q88.88 12.89 88.98 13.01Q89.07 13.13 89.22 13.19L89.22 13.19Q89.30 13.60 89.46 13.92Q89.61 14.25 89.59 14.59L89.59 14.59Q89.50 14.90 89.31 15.11Q89.13 15.31 89.04 15.53L89.04 15.53Q88.92 15.57 88.80 15.61Q88.68 15.65 88.61 15.74L88.61 15.74Z"/></g><g fill="#000000" stroke="none" transform="matrix(2.8125,0,0,2.8125,-12.426002502441406,0)" id="fd4029f0-168f-471f-bd18-31acf40cfd61" data-v-423bf9ae=""><path d="M27.377 11.377L16 0 4.623 11.377 16 22.753l11.377-11.376zM16 6.026l5.35 5.35L16 16.727l-5.35-5.35L16 6.026zM27.426 14.969l-5.664 5.664V32h5.664zM10.238 20.633l-5.664-5.664V32h5.664z"/></g><g transform="matrix(1.9768712520599365,0,0,1.9768712520599365,84.63204956054688,58.614051818847656)" fill="#000000" id="52fb3b03-a0d9-4ca3-8ed3-da8106041428" data-v-423bf9ae=""><path d="M4.86 1.54Q4.43 0.91 3.25 1.20L3.25 1.20Q2.29 1.43 1.65 2.14L1.65 2.14Q0.64 3.26 0.21 5.40L0.21 5.40Q-0.09 6.86-0.18 8.67L-0.18 8.67Q-0.20 9.98-0.06 10.47L-0.06 10.47Q0.21 11.44 1.30 11.50L1.30 11.50Q1.92 11.53 2.51 11.27L2.51 11.27Q3.10 10.99 3.47 10.51L3.47 10.51Q3.85 10.02 4.18 8.89L4.18 8.89Q4.26 8.64 3.60 8.76L3.60 8.76Q3.30 8.81 3.05 8.93L3.05 8.93Q2.78 9.06 2.75 9.15L2.75 9.15Q2.50 9.99 2.23 10.48L2.23 10.48Q2.11 10.68 1.98 10.83L1.98 10.83Q1.42 10.58 1.29 9.66L1.29 9.66Q1.26 9.42 1.28 8.20L1.28 8.20Q1.37 6.41 1.69 4.92L1.69 4.92Q2.15 2.75 3.19 1.80L3.19 1.80Q3.20 1.79 3.23 1.76L3.23 1.76Q3.59 2.01 3.68 2.75L3.68 2.75Q3.76 3.36 3.55 4.29L3.55 4.29Q3.21 5.76 3.21 5.80L3.21 5.80Q3.19 5.92 3.57 5.89L3.57 5.89Q3.83 5.87 3.99 5.82L3.99 5.82Q4.63 5.65 4.67 5.41L4.67 5.41Q4.72 5.07 4.87 4.41L4.87 4.41Q5.04 3.74 5.09 3.40L5.09 3.40Q5.28 2.17 4.86 1.54L4.86 1.54ZM16.21 2.21Q15.57 2.38 15.54 2.63L15.54 2.63Q15.48 3.01 15.33 4.51L15.33 4.51Q15.20 5.69 15.07 6.41L15.07 6.41Q14.66 8.57 13.56 9.83L13.56 9.83Q13.41 10.00 13.30 10.12L13.30 10.12Q13.04 9.61 13.00 8.40L13.00 8.40Q12.95 6.90 13.87 4.58L13.87 4.58Q14.55 2.88 14.72 2.40L14.72 2.40Q14.81 2.15 14.14 2.26L14.14 2.26Q13.36 2.41 13.28 2.66L13.28 2.66Q13.11 3.12 12.56 4.53L12.56 4.53Q12.09 5.71 11.88 6.43L11.88 6.43Q11.22 8.66 11.79 10.36L11.79 10.36Q11.89 10.68 12.09 10.83L12.09 10.83Q12.32 11.03 12.96 10.92L12.96 10.92Q13.97 10.73 14.88 9.71L14.88 9.71Q16.05 8.41 16.48 6.34L16.48 6.34Q16.64 5.55 16.78 4.29L16.78 4.29Q16.95 2.58 17.00 2.24L17.00 2.24Q17.01 2.11 16.63 2.14L16.63 2.14Q16.38 2.16 16.21 2.21L16.21 2.21ZM27.44 5.31Q27.29 6.24 26.39 7.18L26.39 7.18Q26.20 7.38 25.96 7.58L25.96 7.58Q25.90 7.63 25.84 7.68L25.84 7.68Q25.62 7.59 25.37 7.58L25.37 7.58Q25.93 4.74 26.07 2.66L26.07 2.66Q26.34 2.80 26.58 2.99L26.58 2.99Q27.09 3.39 27.32 4.03L27.32 4.03Q27.55 4.65 27.44 5.31L27.44 5.31ZM24.47 2.40Q24.47 2.40 24.48 2.39L24.48 2.39Q24.47 2.40 24.47 2.40L24.47 2.40ZM29.40 11.42Q28.67 10.88 27.14 8.99L27.14 8.99Q26.47 8.17 26.35 8.05L26.35 8.05Q26.81 7.84 27.24 7.50L27.24 7.50Q28.44 6.56 28.80 5.41L28.80 5.41Q29.05 4.60 28.84 3.84L28.84 3.84Q28.63 3.07 28.01 2.53L28.01 2.53Q26.76 1.46 24.69 1.88L24.69 1.88Q24.56 1.91 24.36 1.96L24.36 1.96Q23.63 2.14 23.69 2.37L23.69 2.37Q23.75 2.58 24.46 2.40L24.46 2.40Q24.53 2.39 24.58 2.38L24.58 2.38Q24.62 2.37 24.65 2.37L24.65 2.37Q24.53 5.11 23.30 10.79L23.30 10.79Q23.24 11.04 23.88 10.92L23.88 10.92Q24.19 10.87 24.44 10.75L24.44 10.75Q24.72 10.62 24.74 10.53L24.74 10.53Q25.03 9.17 25.13 8.72L25.13 8.72Q25.14 8.72 25.14 8.72L25.14 8.72Q25.14 8.72 25.14 8.72L25.14 8.72Q25.25 8.85 25.94 9.70L25.94 9.70Q27.25 11.34 28.02 11.92L28.02 11.92Q28.25 12.09 28.96 11.83L28.96 11.83Q29.15 11.76 29.29 11.67L29.29 11.67Q29.54 11.52 29.40 11.42L29.40 11.42ZM39.73 5.31Q39.58 6.24 38.68 7.18L38.68 7.18Q38.49 7.38 38.25 7.58L38.25 7.58Q38.19 7.63 38.13 7.68L38.13 7.68Q37.91 7.59 37.66 7.58L37.66 7.58Q38.22 4.74 38.36 2.66L38.36 2.66Q38.63 2.80 38.87 2.99L38.87 2.99Q39.38 3.39 39.61 4.03L39.61 4.03Q39.84 4.65 39.73 5.31L39.73 5.31ZM36.76 2.40Q36.76 2.40 36.77 2.39L36.77 2.39Q36.76 2.40 36.76 2.40L36.76 2.40ZM41.69 11.42Q40.96 10.88 39.43 8.99L39.43 8.99Q38.76 8.17 38.64 8.05L38.64 8.05Q39.10 7.84 39.53 7.50L39.53 7.50Q40.74 6.56 41.09 5.41L41.09 5.41Q41.34 4.60 41.13 3.84L41.13 3.84Q40.92 3.07 40.30 2.53L40.30 2.53Q39.05 1.46 36.98 1.88L36.98 1.88Q36.85 1.91 36.65 1.96L36.65 1.96Q35.92 2.14 35.98 2.37L35.98 2.37Q36.04 2.58 36.75 2.40L36.75 2.40Q36.82 2.39 36.87 2.38L36.87 2.38Q36.91 2.37 36.94 2.37L36.94 2.37Q36.83 5.11 35.59 10.79L35.59 10.79Q35.53 11.04 36.17 10.92L36.17 10.92Q36.48 10.87 36.73 10.75L36.73 10.75Q37.01 10.62 37.03 10.53L37.03 10.53Q37.32 9.17 37.42 8.72L37.42 8.72Q37.43 8.72 37.43 8.72L37.43 8.72Q37.43 8.72 37.43 8.72L37.43 8.72Q37.54 8.85 38.23 9.70L38.23 9.70Q39.55 11.34 40.31 11.92L40.31 11.92Q40.54 12.09 41.25 11.83L41.25 11.83Q41.44 11.76 41.58 11.67L41.58 11.67Q41.83 11.52 41.69 11.42L41.69 11.42ZM52.79 1.42Q52.08 1.19 50.89 1.57L50.89 1.57Q49.38 2.06 48.82 3.77L48.82 3.77Q48.47 4.83 48.65 6.11L48.65 6.11Q48.74 6.76 49.01 7.16L49.01 7.16Q48.59 7.38 48.30 7.70L48.30 7.70Q47.30 8.80 47.41 10.01L47.41 10.01Q47.48 10.70 47.95 11.11L47.95 11.11Q48.35 11.44 49.18 11.42L49.18 11.42Q50.01 11.39 50.72 10.95L50.72 10.95Q51.47 10.49 51.77 9.76L51.77 9.76Q51.83 9.61 51.55 9.60L51.55 9.60Q51.38 9.59 51.19 9.63L51.19 9.63Q50.44 9.76 50.33 10.02L50.33 10.02Q50.13 10.51 49.79 10.80L49.79 10.80Q49.77 10.81 49.76 10.82L49.76 10.82Q49.71 10.81 49.70 10.81L49.70 10.81Q49.64 10.79 49.55 10.75L49.55 10.75Q49.39 10.68 49.23 10.52L49.23 10.52Q48.95 10.23 48.87 9.63L48.87 9.63Q48.77 8.83 49.40 7.86L49.40 7.86Q49.49 7.74 49.59 7.62L49.59 7.62Q49.80 7.70 50.07 7.72L50.07 7.72Q50.48 7.74 50.97 7.51L50.97 7.51Q51.39 7.32 51.24 7.18L51.24 7.18Q50.95 6.90 50.52 6.84L50.52 6.84Q50.48 6.79 50.45 6.75L50.45 6.75Q50.24 6.45 50.13 5.89L50.13 5.89Q49.94 4.89 50.13 4.00L50.13 4.00Q50.39 2.70 51.16 2.04L51.16 2.04Q51.21 2.00 51.31 1.93L51.31 1.93Q51.32 1.93 51.32 1.93L51.32 1.93Q51.45 1.94 51.43 1.93L51.43 1.93Q52.01 2.02 51.89 2.62L51.89 2.62Q51.84 2.86 52.47 2.75L52.47 2.75Q52.78 2.69 53.03 2.58L53.03 2.58Q53.31 2.45 53.33 2.36L53.33 2.36Q53.47 1.63 52.79 1.42L52.79 1.42ZM65.07 0.74Q64.76 0.79 64.51 0.91L64.51 0.91Q64.24 1.04 64.21 1.13L64.21 1.13Q63.33 3.96 62.71 7.39L62.71 7.39Q62.62 6.88 62.51 6.21L62.51 6.21Q62.21 4.44 62.17 4.05L62.17 4.05Q62.02 2.77 61.82 2.37L61.82 2.37Q61.82 2.37 61.81 2.35L61.81 2.35L61.82 2.34Q61.82 2.34 61.82 2.33L61.82 2.33Q61.86 2.08 61.23 2.20L61.23 2.20Q60.93 2.26 60.68 2.37L60.68 2.37Q60.39 2.51 60.38 2.60L60.38 2.60Q60.19 3.71 59.55 6.73L59.55 6.73Q59.00 9.34 58.80 10.89L58.80 10.89Q58.78 11.01 59.17 10.98L59.17 10.98Q59.42 10.96 59.59 10.91L59.59 10.91Q60.23 10.74 60.26 10.50L60.26 10.50Q60.46 8.97 61.01 6.38L61.01 6.38Q61.04 6.54 61.04 6.61L61.04 6.61Q61.26 7.90 61.44 8.95L61.44 8.95Q61.70 10.45 61.93 11.09L61.93 11.09Q61.98 11.24 62.32 11.21L62.32 11.21Q62.64 11.18 62.97 11.05L62.97 11.05Q63.56 10.89 63.59 10.65L63.59 10.65Q64.37 5.00 65.65 0.87L65.65 0.87Q65.73 0.62 65.07 0.74L65.07 0.74ZM76.75 1.54Q76.32 0.91 75.13 1.20L75.13 1.20Q74.18 1.43 73.53 2.14L73.53 2.14Q72.52 3.26 72.09 5.40L72.09 5.40Q71.80 6.86 71.70 8.67L71.70 8.67Q71.69 9.98 71.83 10.47L71.83 10.47Q72.10 11.44 73.19 11.50L73.19 11.50Q73.81 11.53 74.40 11.27L74.40 11.27Q74.99 10.99 75.36 10.51L75.36 10.51Q75.74 10.02 76.07 8.89L76.07 8.89Q76.15 8.64 75.49 8.76L75.49 8.76Q75.19 8.81 74.94 8.93L74.94 8.93Q74.66 9.06 74.63 9.15L74.63 9.15Q74.39 9.99 74.12 10.48L74.12 10.48Q74.00 10.68 73.87 10.83L73.87 10.83Q73.30 10.58 73.18 9.66L73.18 9.66Q73.15 9.42 73.17 8.20L73.17 8.20Q73.26 6.41 73.58 4.92L73.58 4.92Q74.04 2.75 75.07 1.80L75.07 1.80Q75.09 1.79 75.11 1.76L75.11 1.76Q75.48 2.01 75.57 2.75L75.57 2.75Q75.65 3.36 75.43 4.29L75.43 4.29Q75.10 5.76 75.09 5.80L75.09 5.80Q75.07 5.92 75.46 5.89L75.46 5.89Q75.71 5.87 75.88 5.82L75.88 5.82Q76.51 5.65 76.56 5.41L76.56 5.41Q76.60 5.07 76.76 4.41L76.76 4.41Q76.92 3.74 76.98 3.40L76.98 3.40Q77.17 2.17 76.75 1.54L76.75 1.54ZM89.45 1.12Q89.41 0.90 88.68 1.07L88.68 1.07Q87.94 1.25 87.99 1.51L87.99 1.51Q88.17 2.73 87.94 4.12L87.94 4.12Q87.68 5.76 86.93 6.75L86.93 6.75Q86.78 6.95 86.52 7.16L86.52 7.16Q86.45 7.23 86.34 7.29L86.34 7.29Q86.35 7.29 86.27 7.34L86.27 7.34L86.26 7.34Q86.26 7.34 86.26 7.34L86.26 7.34Q86.19 7.36 86.12 7.38L86.12 7.38L86.11 7.37Q86.11 7.37 86.10 7.37L86.10 7.37Q86.06 7.36 86.00 7.35L86.00 7.35Q85.99 7.35 85.96 7.33L85.96 7.33Q85.96 7.33 85.93 7.33L85.93 7.33Q85.34 7.06 85.35 5.83L85.35 5.83Q85.35 4.47 86.31 1.59L86.31 1.59Q86.39 1.34 85.72 1.46L85.72 1.46Q84.95 1.60 84.87 1.85L84.87 1.85Q84 4.44 83.90 5.87L83.90 5.87Q83.80 7.12 84.31 7.65L84.31 7.65Q84.59 7.94 85.20 7.96L85.20 7.96Q85.34 7.97 85.50 7.96L85.50 7.96Q85.44 8.59 84.92 10.68L84.92 10.68Q84.85 10.94 85.50 10.82L85.50 10.82Q85.80 10.77 86.06 10.65L86.06 10.65Q86.34 10.52 86.36 10.42L86.36 10.42Q86.90 8.28 86.96 7.59L86.96 7.59Q87.00 7.57 87.01 7.57L87.01 7.57Q88.59 6.90 89.21 4.67L89.21 4.67Q89.71 2.84 89.45 1.12L89.45 1.12ZM111.08 1.54Q110.65 0.91 109.46 1.20L109.46 1.20Q108.51 1.43 107.86 2.14L107.86 2.14Q106.85 3.26 106.42 5.40L106.42 5.40Q106.13 6.86 106.03 8.67L106.03 8.67Q106.02 9.98 106.16 10.47L106.16 10.47Q106.43 11.44 107.52 11.50L107.52 11.50Q108.14 11.53 108.73 11.27L108.73 11.27Q109.32 10.99 109.69 10.51L109.69 10.51Q110.07 10.02 110.40 8.89L110.40 8.89Q110.48 8.64 109.82 8.76L109.82 8.76Q109.52 8.81 109.27 8.93L109.27 8.93Q108.99 9.06 108.96 9.15L108.96 9.15Q108.72 9.99 108.45 10.48L108.45 10.48Q108.33 10.68 108.20 10.83L108.20 10.83Q107.63 10.58 107.51 9.66L107.51 9.66Q107.48 9.42 107.50 8.20L107.50 8.20Q107.59 6.41 107.91 4.92L107.91 4.92Q108.37 2.75 109.40 1.80L109.40 1.80Q109.42 1.79 109.44 1.76L109.44 1.76Q109.81 2.01 109.90 2.75L109.90 2.75Q109.98 3.36 109.76 4.29L109.76 4.29Q109.43 5.76 109.42 5.80L109.42 5.80Q109.40 5.92 109.79 5.89L109.79 5.89Q110.04 5.87 110.21 5.82L110.21 5.82Q110.84 5.65 110.89 5.41L110.89 5.41Q110.93 5.07 111.09 4.41L111.09 4.41Q111.25 3.74 111.31 3.40L111.31 3.40Q111.50 2.17 111.08 1.54L111.08 1.54ZM121.15 5.20Q121.02 6.64 120.76 7.92L120.76 7.92Q120.35 9.88 119.57 10.64L119.57 10.64Q119.49 10.55 119.41 10.38L119.41 10.38Q119.23 9.97 119.24 9.03L119.24 9.03Q119.27 7.34 119.84 5.48L119.84 5.48Q120.34 3.85 121.04 3.01L121.04 3.01Q121.11 3.25 121.16 3.62L121.16 3.62Q121.23 4.21 121.15 5.20L121.15 5.20ZM122.08 1.96Q121.87 1.79 121.13 2.05L121.13 2.05Q120.63 2.24 120.65 2.39L120.65 2.39Q120.40 2.48 120.22 2.63L120.22 2.63Q119.24 3.40 118.58 5.22L118.58 5.22Q118.03 6.70 117.84 8.50L117.84 8.50Q117.76 9.28 117.78 9.92L117.78 9.92Q117.82 10.77 118.19 11.13L118.19 11.13Q118.37 11.31 118.80 11.33L118.80 11.33Q119.34 11.36 120.17 11.02L120.17 11.02Q120.85 10.74 121.37 9.94L121.37 9.94Q121.84 9.21 122.16 7.85L122.16 7.85Q122.37 6.94 122.49 5.84L122.49 5.84Q122.66 4.44 122.66 3.78L122.66 3.78Q122.64 2.45 122.08 1.96L122.08 1.96ZM135.43 0.74Q135.12 0.79 134.87 0.91L134.87 0.91Q134.59 1.04 134.57 1.13L134.57 1.13Q133.68 3.96 133.06 7.39L133.06 7.39Q132.98 6.88 132.86 6.21L132.86 6.21Q132.57 4.44 132.52 4.05L132.52 4.05Q132.37 2.77 132.18 2.37L132.18 2.37Q132.18 2.37 132.17 2.35L132.17 2.35L132.17 2.34Q132.17 2.34 132.17 2.33L132.17 2.33Q132.21 2.08 131.58 2.20L131.58 2.20Q131.28 2.26 131.03 2.37L131.03 2.37Q130.74 2.51 130.73 2.60L130.73 2.60Q130.55 3.71 129.90 6.73L129.90 6.73Q129.36 9.34 129.15 10.89L129.15 10.89Q129.14 11.01 129.52 10.98L129.52 10.98Q129.77 10.96 129.94 10.91L129.94 10.91Q130.59 10.74 130.61 10.50L130.61 10.50Q130.81 8.97 131.37 6.38L131.37 6.38Q131.39 6.54 131.40 6.61L131.40 6.61Q131.62 7.90 131.80 8.95L131.80 8.95Q132.06 10.45 132.28 11.09L132.28 11.09Q132.34 11.24 132.68 11.21L132.68 11.21Q132.99 11.18 133.33 11.05L133.33 11.05Q133.92 10.89 133.95 10.65L133.95 10.65Q134.72 5.00 136.01 0.87L136.01 0.87Q136.09 0.62 135.43 0.74L135.43 0.74ZM147.37 2.13Q147.32 1.90 146.59 2.08L146.59 2.08Q145.85 2.27 145.91 2.52L145.91 2.52Q146.01 3.04 145.84 3.73L145.84 3.73Q145.78 3.96 145.67 4.33L145.67 4.33Q145.53 4.77 145.49 4.92L145.49 4.92Q145.12 6.24 144.88 6.97L144.88 6.97Q144.54 7.99 144.23 8.65L144.23 8.65Q144.26 2.78 144.24 2.18L144.24 2.18Q144.24 2.09 144.01 2.08L144.01 2.08Q143.79 2.07 143.50 2.13L143.50 2.13Q142.77 2.29 142.78 2.58L142.78 2.58Q142.83 4.06 142.80 6.67L142.80 6.67Q142.75 9.59 142.78 10.75L142.78 10.75Q142.78 10.93 143.37 10.82L143.37 10.82Q143.92 10.72 144.17 10.50L144.17 10.50Q145.41 9.40 146.30 6.77L146.30 6.77Q146.54 6.07 146.93 4.65L146.93 4.65Q147.48 2.69 147.37 2.13L147.37 2.13ZM158.45 1.42Q157.74 1.19 156.56 1.57L156.56 1.57Q155.05 2.06 154.49 3.77L154.49 3.77Q154.14 4.83 154.31 6.11L154.31 6.11Q154.40 6.76 154.67 7.16L154.67 7.16Q154.25 7.38 153.96 7.70L153.96 7.70Q152.96 8.80 153.07 10.01L153.07 10.01Q153.14 10.70 153.62 11.11L153.62 11.11Q154.01 11.44 154.84 11.42L154.84 11.42Q155.67 11.39 156.38 10.95L156.38 10.95Q157.13 10.49 157.43 9.76L157.43 9.76Q157.49 9.61 157.21 9.60L157.21 9.60Q157.04 9.59 156.85 9.63L156.85 9.63Q156.10 9.76 156.00 10.02L156.00 10.02Q155.80 10.51 155.45 10.80L155.45 10.80Q155.44 10.81 155.42 10.82L155.42 10.82Q155.37 10.81 155.37 10.81L155.37 10.81Q155.30 10.79 155.22 10.75L155.22 10.75Q155.05 10.68 154.90 10.52L154.90 10.52Q154.61 10.23 154.53 9.63L154.53 9.63Q154.44 8.83 155.07 7.86L155.07 7.86Q155.15 7.74 155.25 7.62L155.25 7.62Q155.46 7.70 155.74 7.72L155.74 7.72Q156.14 7.74 156.63 7.51L156.63 7.51Q157.05 7.32 156.90 7.18L156.90 7.18Q156.61 6.90 156.19 6.84L156.19 6.84Q156.15 6.79 156.11 6.75L156.11 6.75Q155.91 6.45 155.80 5.89L155.80 5.89Q155.61 4.89 155.79 4.00L155.79 4.00Q156.06 2.70 156.82 2.04L156.82 2.04Q156.88 2.00 156.97 1.93L156.97 1.93Q156.98 1.93 156.98 1.93L156.98 1.93Q157.11 1.94 157.09 1.93L157.09 1.93Q157.67 2.02 157.55 2.62L157.55 2.62Q157.51 2.86 158.14 2.75L158.14 2.75Q158.44 2.69 158.70 2.58L158.70 2.58Q158.98 2.45 159.00 2.36L159.00 2.36Q159.13 1.63 158.45 1.42L158.45 1.42ZM168.70 5.31Q168.55 6.24 167.66 7.18L167.66 7.18Q167.47 7.38 167.23 7.58L167.23 7.58Q167.17 7.63 167.10 7.68L167.10 7.68Q166.89 7.59 166.63 7.58L166.63 7.58Q167.19 4.74 167.34 2.66L167.34 2.66Q167.60 2.80 167.84 2.99L167.84 2.99Q168.36 3.39 168.59 4.03L168.59 4.03Q168.81 4.65 168.70 5.31L168.70 5.31ZM165.73 2.40Q165.73 2.40 165.74 2.39L165.74 2.39Q165.74 2.40 165.73 2.40L165.73 2.40ZM170.67 11.42Q169.93 10.88 168.40 8.99L168.40 8.99Q167.73 8.17 167.62 8.05L167.62 8.05Q168.08 7.84 168.51 7.50L168.51 7.50Q169.71 6.56 170.06 5.41L170.06 5.41Q170.31 4.60 170.11 3.84L170.11 3.84Q169.89 3.07 169.27 2.53L169.27 2.53Q168.03 1.46 165.96 1.88L165.96 1.88Q165.83 1.91 165.63 1.96L165.63 1.96Q164.89 2.14 164.95 2.37L164.95 2.37Q165.01 2.58 165.72 2.40L165.72 2.40Q165.79 2.39 165.84 2.38L165.84 2.38Q165.88 2.37 165.92 2.37L165.92 2.37Q165.80 5.11 164.56 10.79L164.56 10.79Q164.51 11.04 165.14 10.92L165.14 10.92Q165.45 10.87 165.70 10.75L165.70 10.75Q165.98 10.62 166.00 10.53L166.00 10.53Q166.30 9.17 166.39 8.72L166.39 8.72Q166.40 8.72 166.40 8.72L166.40 8.72Q166.41 8.72 166.41 8.72L166.41 8.72Q166.52 8.85 167.20 9.70L167.20 9.70Q168.52 11.34 169.29 11.92L169.29 11.92Q169.51 12.09 170.23 11.83L170.23 11.83Q170.41 11.76 170.56 11.67L170.56 11.67Q170.80 11.52 170.67 11.42L170.67 11.42ZM181.91 2.35Q180.95 2.17 179.95 2.15L179.95 2.15Q179.85 2.03 179.38 2.11L179.38 2.11Q179.28 2.13 179.16 2.16L179.16 2.16Q178.10 2.22 177.06 2.46L177.06 2.46Q176.32 2.63 176.39 2.88L176.39 2.88Q176.44 3.08 177.16 2.91L177.16 2.91Q177.17 2.91 177.18 2.90L177.18 2.90Q177.19 2.90 177.21 2.89L177.21 2.89Q177.28 2.88 177.44 2.85L177.44 2.85Q177.60 2.82 177.83 2.80L177.83 2.80Q178.12 2.76 178.45 2.75L178.45 2.75Q177.03 7.40 176.63 10.96L176.63 10.96Q176.63 11.02 176.85 11.03L176.85 11.03Q177.06 11.04 177.34 10.99L177.34 10.99Q178.07 10.86 178.10 10.56L178.10 10.56Q178.47 7.19 179.79 2.78L179.79 2.78Q180.26 2.82 180.70 2.91L180.70 2.91Q181.14 2.99 181.73 2.72L181.73 2.72Q181.88 2.65 181.98 2.54L181.98 2.54Q182.12 2.39 181.91 2.35L181.91 2.35ZM192.33 1.42Q191.62 1.19 190.44 1.57L190.44 1.57Q188.92 2.06 188.36 3.77L188.36 3.77Q188.02 4.83 188.19 6.11L188.19 6.11Q188.28 6.76 188.55 7.16L188.55 7.16Q188.13 7.38 187.84 7.70L187.84 7.70Q186.84 8.80 186.95 10.01L186.95 10.01Q187.02 10.70 187.50 11.11L187.50 11.11Q187.89 11.44 188.72 11.42L188.72 11.42Q189.55 11.39 190.26 10.95L190.26 10.95Q191.01 10.49 191.31 9.76L191.31 9.76Q191.37 9.61 191.09 9.60L191.09 9.60Q190.92 9.59 190.73 9.63L190.73 9.63Q189.98 9.76 189.88 10.02L189.88 10.02Q189.68 10.51 189.33 10.80L189.33 10.80Q189.31 10.81 189.30 10.82L189.30 10.82Q189.25 10.81 189.25 10.81L189.25 10.81Q189.18 10.79 189.10 10.75L189.10 10.75Q188.93 10.68 188.77 10.52L188.77 10.52Q188.49 10.23 188.41 9.63L188.41 9.63Q188.32 8.83 188.95 7.86L188.95 7.86Q189.03 7.74 189.13 7.62L189.13 7.62Q189.34 7.70 189.62 7.72L189.62 7.72Q190.02 7.74 190.51 7.51L190.51 7.51Q190.93 7.32 190.78 7.18L190.78 7.18Q190.49 6.90 190.07 6.84L190.07 6.84Q190.03 6.79 189.99 6.75L189.99 6.75Q189.79 6.45 189.68 5.89L189.68 5.89Q189.49 4.89 189.67 4.00L189.67 4.00Q189.94 2.70 190.70 2.04L190.70 2.04Q190.76 2.00 190.85 1.93L190.85 1.93Q190.86 1.93 190.86 1.93L190.86 1.93Q190.99 1.94 190.97 1.93L190.97 1.93Q191.55 2.02 191.43 2.62L191.43 2.62Q191.39 2.86 192.01 2.75L192.01 2.75Q192.32 2.69 192.58 2.58L192.58 2.58Q192.86 2.45 192.88 2.36L192.88 2.36Q193.01 1.63 192.33 1.42L192.33 1.42ZM202.58 5.31Q202.43 6.24 201.54 7.18L201.54 7.18Q201.35 7.38 201.11 7.58L201.11 7.58Q201.04 7.63 200.98 7.68L200.98 7.68Q200.76 7.59 200.51 7.58L200.51 7.58Q201.07 4.74 201.22 2.66L201.22 2.66Q201.48 2.80 201.72 2.99L201.72 2.99Q202.23 3.39 202.47 4.03L202.47 4.03Q202.69 4.65 202.58 5.31L202.58 5.31ZM199.61 2.40Q199.61 2.40 199.62 2.39L199.62 2.39Q199.62 2.40 199.61 2.40L199.61 2.40ZM204.54 11.42Q203.81 10.88 202.28 8.99L202.28 8.99Q201.61 8.17 201.50 8.05L201.50 8.05Q201.95 7.84 202.38 7.50L202.38 7.50Q203.59 6.56 203.94 5.41L203.94 5.41Q204.19 4.60 203.98 3.84L203.98 3.84Q203.77 3.07 203.15 2.53L203.15 2.53Q201.91 1.46 199.83 1.88L199.83 1.88Q199.71 1.91 199.51 1.96L199.51 1.96Q198.77 2.14 198.83 2.37L198.83 2.37Q198.89 2.58 199.60 2.40L199.60 2.40Q199.67 2.39 199.72 2.38L199.72 2.38Q199.76 2.37 199.79 2.37L199.79 2.37Q199.68 5.11 198.44 10.79L198.44 10.79Q198.39 11.04 199.02 10.92L199.02 10.92Q199.33 10.87 199.58 10.75L199.58 10.75Q199.86 10.62 199.88 10.53L199.88 10.53Q200.18 9.17 200.27 8.72L200.27 8.72Q200.28 8.72 200.28 8.72L200.28 8.72Q200.29 8.72 200.29 8.72L200.29 8.72Q200.40 8.85 201.08 9.70L201.08 9.70Q202.40 11.34 203.16 11.92L203.16 11.92Q203.39 12.09 204.11 11.83L204.11 11.83Q204.29 11.76 204.44 11.67L204.44 11.67Q204.68 11.52 204.54 11.42L204.54 11.42Z"/></g></svg>